<?xml version="1.0" encoding="utf-8"?>
<!-- Generator: Adobe Illustrator 17.0.0, SVG Export Plug-In . SVG Version: 6.00 Build 0)  -->
<!DOCTYPE svg PUBLIC "-//W3C//DTD SVG 1.1//EN" "http://www.w3.org/Graphics/SVG/1.1/DTD/svg11.dtd">
<svg version="1.1" id="Layer_1" xmlns:sketch="http://www.bohemiancoding.com/sketch/ns"
	 xmlns="http://www.w3.org/2000/svg" xmlns:xlink="http://www.w3.org/1999/xlink" x="0px" y="0px" width="147px" height="41.125px"
	 viewBox="0 0 147 41.125" enable-background="new 0 0 147 41.125" xml:space="preserve">
<title>button</title>
<desc>Created with Sketch.</desc>
<path fill="#7056BF" d="M143,0H4C1.791,0,0,1.791,0,4v9.125V28v9.125c0,2.209,1.791,4,4,4h139c2.209,0,4-1.791,4-4V28V13.125V4
	C147,1.791,145.209,0,143,0z"/>
<g>
	<g id="Icon" transform="translate(10.000000, 8.000000)" sketch:type="MSShapeGroup">
		<path id="App" fill="#FFFFFF" d="M16.074,7.778l-5.716-2.966c-0.639-0.332-1.567-0.331-2.205,0L2.436,7.778
			C1.751,8.133,1.255,8.927,1.255,9.664v5.933c0,0.739,0.497,1.531,1.181,1.886l2.858,1.483c0.49,0.252,1.095,0.063,1.349-0.426
			c0.254-0.491,0.063-1.094-0.427-1.349L3.361,15.71c-0.038-0.024-0.098-0.109-0.106-0.113L3.251,9.705
			c0.012-0.045,0.072-0.13,0.107-0.152l5.713-2.965c0.081-0.035,0.29-0.034,0.365-0.001l5.713,2.964
			c0.038,0.024,0.098,0.109,0.106,0.113l0.003,5.893c-0.011,0.044-0.071,0.129-0.105,0.151l-2.859,1.483
			c-0.49,0.255-0.681,0.858-0.427,1.349c0.178,0.342,0.528,0.539,0.889,0.539c0.155,0,0.313-0.036,0.46-0.113l2.857-1.483
			c0.685-0.355,1.182-1.147,1.182-1.886V9.664C17.255,8.927,16.759,8.133,16.074,7.778"/>
		<path id="Arrow" fill="#FFFFFF" d="M12.962,14.269c0.391-0.391,0.391-1.023,0-1.414L9.963,9.856
			C9.871,9.763,9.76,9.69,9.637,9.639c-0.244-0.101-0.52-0.101-0.764,0C8.75,9.69,8.64,9.763,8.547,9.856l-2.999,2.999
			c-0.391,0.391-0.391,1.023,0,1.414c0.195,0.195,0.451,0.293,0.707,0.293s0.512-0.098,0.707-0.293l1.293-1.293v6.586
			c0,0.553,0.447,1,1,1c0.553,0,1-0.447,1-1v-6.586l1.293,1.293c0.195,0.195,0.451,0.293,0.707,0.293S12.767,14.464,12.962,14.269"
			/>
	</g>
	<g>
		<g>
			<path id="to-Heroku" sketch:type="MSShapeGroup" fill="#B7A7D5" d="M63.021,29.15c0.205,0,0.456-0.023,0.57-0.046v-0.539
				c-0.106,0.03-0.266,0.053-0.41,0.053c-0.486,0-0.623-0.213-0.623-0.638v-2.355h1.041v-0.539h-1.041v-1.428h-0.653v1.428h-0.699
				v0.539h0.699v2.499C61.905,28.823,62.178,29.15,63.021,29.15z M66.12,29.18c0.98,0,1.861-0.714,1.861-2.089
				c0-1.382-0.881-2.089-1.861-2.089c-0.987,0-1.868,0.706-1.868,2.089C64.252,28.466,65.14,29.18,66.12,29.18z M66.12,28.626
				c-0.813,0-1.208-0.684-1.208-1.534c0-0.904,0.441-1.527,1.208-1.527c0.798,0,1.2,0.691,1.2,1.527
				C67.32,28.01,66.88,28.626,66.12,28.626z M70.799,29.096h0.668v-2.651h2.894v2.651h0.668v-5.621h-0.668v2.355h-2.894v-2.355
				h-0.668V29.096z M77.885,29.18c0.752,0,1.261-0.319,1.633-0.851l-0.38-0.334c-0.304,0.418-0.63,0.653-1.208,0.653
				c-0.661,0-1.185-0.486-1.208-1.39h2.833v-0.137c0-1.451-0.722-2.119-1.671-2.119c-0.843,0-1.815,0.63-1.815,2.089
				C76.07,28.489,76.936,29.18,77.885,29.18z M76.739,26.749c0.091-0.828,0.6-1.2,1.139-1.2c0.661,0,1.003,0.486,1.056,1.2H76.739z
				 M80.491,29.096h0.653v-2.59c0.296-0.57,0.775-0.904,1.413-0.904c0.023,0,0.167,0,0.19,0.008l0.046-0.608h-0.084
				c-0.782,0-1.253,0.365-1.549,0.828h-0.015v-0.744h-0.653V29.096z M85.169,29.18c0.98,0,1.861-0.714,1.861-2.089
				c0-1.382-0.881-2.089-1.861-2.089c-0.987,0-1.868,0.706-1.868,2.089C83.301,28.466,84.19,29.18,85.169,29.18z M85.169,28.626
				c-0.813,0-1.208-0.684-1.208-1.534c0-0.904,0.441-1.527,1.208-1.527c0.798,0,1.2,0.691,1.2,1.527
				C86.37,28.01,85.929,28.626,85.169,28.626z M87.957,29.096h0.653v-1.23l0.798-0.858l1.185,2.089h0.699l-1.458-2.575l1.314-1.436
				h-0.744l-1.793,2.005v-3.615h-0.653V29.096z M93.205,29.172c0.653,0,1.155-0.334,1.504-0.676v0.6h0.661v-4.01h-0.661v2.894
				c-0.418,0.395-0.813,0.646-1.299,0.646c-0.509,0-0.737-0.251-0.737-0.782v-2.757h-0.653v2.894
				C92.021,28.739,92.438,29.172,93.205,29.172L93.205,29.172z"/>
			<path id="Deploy" sketch:type="MSShapeGroup" fill="#B7A7D5" d="M35.438,29.096h1.481c1.785,0,2.833-0.919,2.833-2.826
				c0-1.884-1.025-2.795-2.833-2.795h-1.481V29.096z M36.106,28.496v-4.405h0.881c1.367,0,2.096,0.668,2.096,2.18
				c0,1.565-0.722,2.225-2.081,2.225H36.106z M42.342,29.18c0.752,0,1.261-0.319,1.633-0.851l-0.38-0.334
				c-0.304,0.418-0.63,0.653-1.208,0.653c-0.661,0-1.185-0.486-1.208-1.39h2.833v-0.137c0-1.451-0.722-2.119-1.671-2.119
				c-0.843,0-1.815,0.63-1.815,2.089C40.527,28.489,41.393,29.18,42.342,29.18z M41.195,26.749c0.091-0.828,0.6-1.2,1.139-1.2
				c0.661,0,1.003,0.486,1.056,1.2H41.195z M44.948,30.616h0.653V28.58c0.342,0.357,0.76,0.577,1.253,0.577
				c0.98,0,1.701-0.676,1.701-2.074c0-1.398-0.714-2.081-1.633-2.081c-0.6,0-1.018,0.304-1.322,0.638v-0.554h-0.653V30.616z
				 M46.763,28.626c-0.425,0-0.813-0.213-1.162-0.608V26.18c0.334-0.365,0.706-0.615,1.17-0.615c0.646,0,1.132,0.501,1.132,1.527
				C47.902,28.155,47.462,28.626,46.763,28.626z M49.543,29.096h0.653v-5.621h-0.653V29.096z M53.037,29.18
				c0.98,0,1.861-0.714,1.861-2.089c0-1.382-0.881-2.089-1.861-2.089c-0.987,0-1.868,0.706-1.868,2.089
				C51.168,28.466,52.057,29.18,53.037,29.18z M53.037,28.626c-0.813,0-1.208-0.684-1.208-1.534c0-0.904,0.441-1.527,1.208-1.527
				c0.798,0,1.2,0.691,1.2,1.527C54.237,28.01,53.796,28.626,53.037,28.626z M56.052,30.638c0.782,0,1.094-0.38,1.367-1.086
				l1.717-4.466h-0.661l-1.177,3.243h-0.015l-1.177-3.243h-0.691l1.549,4.033l-0.152,0.395c-0.16,0.395-0.357,0.57-0.767,0.57
				c-0.281,0-0.479-0.038-0.592-0.068L55.3,30.54C55.475,30.593,55.695,30.638,56.052,30.638L56.052,30.638z"/>
		</g>
		<g>
			<path fill="#FFFFFF" d="M35.746,17.166c-0.205-0.494-0.308-1.031-0.308-1.61c0-0.579,0.103-1.115,0.308-1.609
				c0.205-0.493,0.483-0.909,0.832-1.245c0.35-0.336,0.764-0.599,1.241-0.788c0.477-0.188,0.984-0.283,1.521-0.283
				c1.207,0,2.195,0.47,2.962,1.41l-0.764,0.477c-0.245-0.318-0.561-0.571-0.949-0.759c-0.388-0.188-0.804-0.283-1.25-0.283
				c-0.838,0-1.535,0.287-2.091,0.862c-0.556,0.575-0.834,1.313-0.834,2.215c0,0.591,0.128,1.125,0.384,1.599
				c0.256,0.475,0.606,0.843,1.051,1.106c0.445,0.262,0.942,0.393,1.49,0.393c0.419,0,0.81-0.081,1.173-0.243
				c0.363-0.162,0.656-0.355,0.878-0.578v-1.546h-2.599v-0.844h3.543v2.741c-0.369,0.408-0.809,0.729-1.322,0.963
				c-0.512,0.234-1.07,0.351-1.674,0.351c-0.536,0-1.044-0.095-1.521-0.286c-0.477-0.191-0.891-0.455-1.241-0.794
				C36.229,18.077,35.951,17.661,35.746,17.166z"/>
			<path fill="#FFFFFF" d="M43.858,19.346v-7.587h4.971v0.844h-4.026v2.438h3.943v0.844h-3.943v2.616h4.026v0.844H43.858z"/>
			<path fill="#FFFFFF" d="M49.806,12.603v-0.844h5.754v0.844h-2.41v6.743h-0.944v-6.743H49.806z"/>
			<path fill="#FFFFFF" d="M59.297,18.273l0.566-0.728c0.274,0.318,0.614,0.581,1.019,0.787c0.405,0.206,0.858,0.309,1.358,0.309
				c0.322,0,0.604-0.041,0.847-0.122c0.243-0.082,0.429-0.19,0.561-0.323c0.131-0.133,0.228-0.274,0.289-0.42
				c0.061-0.146,0.092-0.299,0.092-0.459c0-0.208-0.051-0.39-0.152-0.548c-0.102-0.158-0.24-0.286-0.413-0.384
				c-0.174-0.098-0.374-0.18-0.602-0.247c-0.228-0.067-0.466-0.136-0.713-0.209c-0.248-0.072-0.495-0.145-0.742-0.217
				c-0.248-0.073-0.483-0.162-0.707-0.271c-0.224-0.108-0.423-0.233-0.597-0.376c-0.174-0.143-0.312-0.328-0.414-0.553
				c-0.102-0.225-0.153-0.483-0.153-0.773c0-0.62,0.247-1.126,0.741-1.518c0.494-0.393,1.119-0.589,1.874-0.589
				c1.111,0,2.005,0.354,2.682,1.061l-0.566,0.696c-0.537-0.609-1.268-0.913-2.194-0.913c-0.452,0-0.825,0.113-1.119,0.34
				c-0.294,0.227-0.442,0.52-0.442,0.879c0,0.184,0.05,0.345,0.152,0.483s0.239,0.252,0.412,0.34
				c0.173,0.088,0.373,0.165,0.598,0.231c0.226,0.066,0.464,0.136,0.713,0.209c0.249,0.073,0.498,0.145,0.745,0.218
				c0.247,0.072,0.483,0.167,0.708,0.282c0.224,0.116,0.424,0.25,0.598,0.403c0.174,0.153,0.312,0.347,0.414,0.583
				c0.102,0.236,0.153,0.504,0.153,0.806c0,0.289-0.052,0.562-0.156,0.817s-0.261,0.492-0.472,0.709
				c-0.211,0.217-0.503,0.389-0.875,0.517c-0.372,0.128-0.804,0.192-1.297,0.192c-0.626,0-1.184-0.108-1.674-0.325
				C60.042,18.943,59.63,18.647,59.297,18.273z"/>
			<path fill="#FFFFFF" d="M65.828,12.603v-0.844h5.754v0.844h-2.41v6.743h-0.944v-6.743H65.828z"/>
			<path fill="#FFFFFF" d="M71.282,19.346l3.06-7.587h1.172l3.049,7.587h-1.077l-0.672-1.683h-3.777l-0.672,1.683H71.282z
				 M73.32,16.819h3.221l-1.616-4.093L73.32,16.819z"/>
			<path fill="#FFFFFF" d="M79.552,19.346v-7.587h3.049c0.703,0,1.277,0.208,1.722,0.625c0.444,0.417,0.666,0.971,0.666,1.663
				c0,0.332-0.055,0.635-0.164,0.911c-0.109,0.276-0.256,0.504-0.442,0.685c-0.185,0.18-0.395,0.324-0.63,0.43
				c-0.235,0.106-0.484,0.171-0.747,0.193l2.049,3.079h-1.116l-1.922-3h-1.522v3H79.552z M80.496,15.502h1.988
				c0.448,0,0.815-0.135,1.1-0.405c0.285-0.27,0.428-0.62,0.428-1.05s-0.142-0.778-0.425-1.044c-0.283-0.267-0.651-0.4-1.102-0.4
				h-1.988V15.502z"/>
			<path fill="#FFFFFF" d="M85.844,12.603v-0.844h5.754v0.844h-2.41v6.743h-0.944v-6.743H85.844z"/>
			<path fill="#FFFFFF" d="M92.848,19.346v-7.587h4.971v0.844h-4.026v2.438h3.943v0.844h-3.943v2.616h4.026v0.844H92.848z"/>
			<path fill="#FFFFFF" d="M99.318,19.346v-7.587h2.594c0.77,0,1.453,0.168,2.049,0.503s1.052,0.79,1.366,1.363
				c0.315,0.574,0.472,1.218,0.472,1.933c0,0.537-0.093,1.038-0.278,1.502c-0.185,0.465-0.444,0.866-0.778,1.203
				c-0.333,0.337-0.743,0.602-1.23,0.794c-0.487,0.193-1.021,0.289-1.602,0.289H99.318z M100.262,18.502h1.649
				c0.596,0,1.118-0.133,1.566-0.4c0.448-0.267,0.784-0.62,1.008-1.061c0.224-0.441,0.336-0.935,0.336-1.483
				c0-0.555-0.11-1.053-0.33-1.494c-0.22-0.441-0.554-0.794-1-1.061c-0.446-0.267-0.973-0.4-1.58-0.4h-1.649V18.502z"/>
			<path fill="#FFFFFF" d="M110.22,19.346v-7.587h0.966l4.365,5.926v-5.926h0.944v7.587h-0.911l-4.421-6.054v6.054H110.22z"/>
			<path fill="#FFFFFF" d="M118.425,17.563c-0.312-0.597-0.468-1.265-0.468-2.005s0.156-1.409,0.468-2.005
				c0.313-0.596,0.756-1.065,1.331-1.408c0.575-0.342,1.229-0.514,1.963-0.514s1.389,0.171,1.968,0.514
				c0.578,0.342,1.024,0.812,1.339,1.408c0.315,0.596,0.472,1.264,0.472,2.005s-0.157,1.409-0.472,2.005
				c-0.316,0.596-0.762,1.065-1.339,1.408c-0.579,0.342-1.234,0.514-1.968,0.514s-1.388-0.171-1.963-0.514
				C119.181,18.629,118.737,18.159,118.425,17.563z M118.934,15.558c0,0.585,0.112,1.111,0.336,1.577
				c0.225,0.467,0.55,0.834,0.976,1.103c0.427,0.268,0.917,0.403,1.474,0.403c0.555,0,1.048-0.134,1.476-0.403
				c0.428-0.268,0.755-0.636,0.984-1.103c0.228-0.467,0.342-0.992,0.342-1.577c0-0.896-0.257-1.634-0.773-2.213
				c-0.515-0.579-1.191-0.869-2.029-0.869c-0.841,0-1.516,0.289-2.023,0.866C119.187,13.92,118.934,14.658,118.934,15.558z"/>
			<path fill="#FFFFFF" d="M126.009,11.759h1.061l1.674,6.296l1.736-6.296h0.782L133,18.085l1.684-6.326h1.061l-2.171,7.587h-1.039
				l-1.664-6.099l-1.664,6.099h-1.035L126.009,11.759z"/>
		</g>
	</g>
</g>
</svg>
